<svg width="180" height="30" viewBox="0 0 180 30" xmlns="http://www.w3.org/2000/svg"><g id="svgGroup" stroke-linecap="round" fill-rule="evenodd" font-size="9pt" stroke="#ffffff" stroke-width="0.1" fill="#ffffff" style="stroke:#ffffff;stroke-width:0.1;fill:#ffffff"><path d="M 155.995 24.15 L 153.825 26.25 L 144.41 16.555 L 144.41 25.9 L 141.26 25.9 L 141.26 0 L 144.41 0 L 144.41 14.805 L 152.635 7.35 L 154.455 9.345 L 147.42 15.575 L 155.995 24.15 Z M 61.04 25.9 L 57.89 25.9 L 57.89 7.7 L 60.935 7.7 L 60.935 10.745 Q 61.915 9.275 63.438 8.278 Q 64.96 7.28 67.06 7.28 A 8.129 8.129 0 0 1 68.833 7.461 Q 70.616 7.86 71.663 9.135 Q 73.185 10.99 73.185 14.035 L 73.185 25.9 L 70.035 25.9 L 70.035 14.385 Q 70.035 12.425 69.108 11.235 A 3.003 3.003 0 0 0 66.911 10.061 A 4.222 4.222 0 0 0 66.535 10.045 A 4.593 4.593 0 0 0 64.138 10.732 A 6.074 6.074 0 0 0 63.49 11.183 Q 62.055 12.32 61.04 13.86 L 61.04 25.9 Z M 39.725 9.52 L 39.725 0 L 42.875 0 L 42.875 21.49 Q 42.875 22.82 43.523 23.223 Q 44.17 23.625 44.94 23.625 L 44.275 26.075 A 6.249 6.249 0 0 1 42.785 25.911 Q 40.768 25.415 40.215 23.415 A 6.82 6.82 0 0 1 39.225 24.518 Q 38.727 24.969 38.103 25.383 A 11.279 11.279 0 0 1 38.063 25.41 Q 36.757 26.269 34.812 26.317 A 9.421 9.421 0 0 1 34.58 26.32 Q 32.34 26.32 30.485 25.165 A 7.942 7.942 0 0 1 27.847 22.438 A 9.668 9.668 0 0 1 27.545 21.893 Q 26.46 19.775 26.46 16.905 A 11.879 11.879 0 0 1 26.771 14.135 A 9.787 9.787 0 0 1 27.563 11.97 Q 28.665 9.8 30.503 8.54 Q 32.34 7.28 34.545 7.28 A 7.575 7.575 0 0 1 36.041 7.421 A 5.58 5.58 0 0 1 37.678 8.015 Q 38.99 8.75 39.725 9.52 Z M 81.55 24.395 L 81.55 25.9 L 78.61 25.9 L 78.61 0 L 81.76 0 L 81.76 9.59 Q 82.46 8.785 83.808 8.032 Q 85.155 7.28 87.01 7.28 Q 89.11 7.28 90.948 8.383 A 7.815 7.815 0 0 1 93.46 10.821 A 9.613 9.613 0 0 1 93.905 11.567 A 8.99 8.99 0 0 1 94.779 14.032 Q 95.002 15.118 95.023 16.365 A 15.497 15.497 0 0 1 95.025 16.625 A 11.66 11.66 0 0 1 94.785 19.036 A 9.712 9.712 0 0 1 94.325 20.58 A 10.278 10.278 0 0 1 93.219 22.682 A 8.919 8.919 0 0 1 92.453 23.643 A 8.713 8.713 0 0 1 90.307 25.362 A 8.156 8.156 0 0 1 89.81 25.62 A 7.002 7.002 0 0 1 87.232 26.306 A 6.723 6.723 0 0 1 86.8 26.32 Q 85.225 26.32 83.843 25.743 Q 82.531 25.195 81.645 24.473 A 6.383 6.383 0 0 1 81.55 24.395 Z M 8.893 26.055 A 12.779 12.779 0 0 0 11.55 26.32 A 13.422 13.422 0 0 0 13.357 26.202 A 10.526 10.526 0 0 0 16.415 25.322 Q 18.55 24.325 20.055 22.593 A 11.424 11.424 0 0 0 20.519 22.023 A 12.157 12.157 0 0 0 22.348 18.55 A 14.183 14.183 0 0 0 22.655 17.524 A 15.556 15.556 0 0 0 23.135 13.615 A 16.875 16.875 0 0 0 23.108 12.643 A 14.504 14.504 0 0 0 22.348 8.715 Q 21.56 6.44 20.055 4.69 Q 18.55 2.94 16.398 1.96 A 10.474 10.474 0 0 0 14.336 1.273 A 12.747 12.747 0 0 0 11.55 0.98 A 13.772 13.772 0 0 0 9.371 1.146 A 10.381 10.381 0 0 0 5.355 2.642 Q 2.765 4.305 1.383 7.157 A 13.296 13.296 0 0 0 0.39 9.997 A 16.164 16.164 0 0 0 0 13.615 A 17.12 17.12 0 0 0 0.013 14.266 A 14.969 14.969 0 0 0 0.788 18.55 A 13.781 13.781 0 0 0 0.942 18.978 A 12.023 12.023 0 0 0 3.063 22.593 Q 4.55 24.325 6.685 25.323 A 10.2 10.2 0 0 0 8.893 26.055 Z M 104.042 25.851 A 9.525 9.525 0 0 0 107.065 26.32 A 10.754 10.754 0 0 0 107.861 26.291 A 8.84 8.84 0 0 0 111.703 25.13 Q 113.75 23.94 114.94 21.788 A 9.189 9.189 0 0 0 115.869 19.288 A 11.964 11.964 0 0 0 116.13 16.73 A 12.09 12.09 0 0 0 115.96 14.662 A 9.028 9.028 0 0 0 114.923 11.708 Q 113.715 9.59 111.668 8.435 A 8.697 8.697 0 0 0 110.043 7.726 A 9.708 9.708 0 0 0 107.065 7.28 A 10.964 10.964 0 0 0 106.512 7.294 A 9.159 9.159 0 0 0 102.445 8.435 Q 100.38 9.59 99.19 11.725 A 9.108 9.108 0 0 0 98.228 14.382 A 12.252 12.252 0 0 0 98 16.8 Q 98 19.6 99.173 21.753 Q 100.345 23.905 102.41 25.113 A 8.596 8.596 0 0 0 104.042 25.851 Z M 124.972 25.851 A 9.525 9.525 0 0 0 127.995 26.32 A 10.754 10.754 0 0 0 128.791 26.291 A 8.84 8.84 0 0 0 132.633 25.13 Q 134.68 23.94 135.87 21.788 A 9.189 9.189 0 0 0 136.799 19.288 A 11.964 11.964 0 0 0 137.06 16.73 A 12.09 12.09 0 0 0 136.89 14.662 A 9.028 9.028 0 0 0 135.853 11.708 Q 134.645 9.59 132.598 8.435 A 8.697 8.697 0 0 0 130.973 7.726 A 9.708 9.708 0 0 0 127.995 7.28 A 10.964 10.964 0 0 0 127.442 7.294 A 9.159 9.159 0 0 0 123.375 8.435 Q 121.31 9.59 120.12 11.725 A 9.108 9.108 0 0 0 119.158 14.382 A 12.252 12.252 0 0 0 118.93 16.8 Q 118.93 19.6 120.103 21.753 Q 121.275 23.905 123.34 25.113 A 8.596 8.596 0 0 0 124.972 25.851 Z M 11.55 23.45 A 9.281 9.281 0 0 0 13.632 23.228 A 6.761 6.761 0 0 0 16.065 22.155 A 7.865 7.865 0 0 0 18.629 19.05 A 9.538 9.538 0 0 0 18.813 18.638 A 11.938 11.938 0 0 0 19.626 15.512 A 15.226 15.226 0 0 0 19.74 13.615 Q 19.74 11.725 19.18 9.975 A 10.407 10.407 0 0 0 17.731 7.061 A 9.842 9.842 0 0 0 17.57 6.843 Q 16.52 5.46 14.998 4.655 A 6.972 6.972 0 0 0 12.402 3.891 A 8.602 8.602 0 0 0 11.55 3.85 A 8.43 8.43 0 0 0 9.278 4.144 A 6.841 6.841 0 0 0 7.158 5.145 Q 5.32 6.44 4.358 8.645 A 11.478 11.478 0 0 0 3.499 11.861 A 14.44 14.44 0 0 0 3.395 13.615 Q 3.395 15.505 3.938 17.273 A 10.283 10.283 0 0 0 5.401 20.264 A 9.773 9.773 0 0 0 5.53 20.44 Q 6.58 21.84 8.103 22.645 A 6.972 6.972 0 0 0 10.699 23.409 A 8.602 8.602 0 0 0 11.55 23.45 Z M 52.29 25.9 L 49.14 25.9 L 49.14 7.7 L 52.29 7.7 L 52.29 25.9 Z M 107.065 23.52 A 6.56 6.56 0 0 0 108.894 23.278 A 4.9 4.9 0 0 0 111.37 21.648 A 6.581 6.581 0 0 0 112.707 18.816 A 9.487 9.487 0 0 0 112.91 16.8 Q 112.91 14.98 112.14 13.458 A 6.719 6.719 0 0 0 110.68 11.508 A 6.36 6.36 0 0 0 110.058 11.008 Q 108.745 10.08 107.065 10.08 A 6.737 6.737 0 0 0 105.236 10.315 A 4.913 4.913 0 0 0 102.76 11.9 A 6.257 6.257 0 0 0 101.474 14.481 Q 101.22 15.507 101.22 16.73 Q 101.22 18.55 101.99 20.108 A 6.803 6.803 0 0 0 103.226 21.871 A 6.17 6.17 0 0 0 104.073 22.592 Q 105.385 23.52 107.065 23.52 Z M 127.995 23.52 A 6.56 6.56 0 0 0 129.824 23.278 A 4.9 4.9 0 0 0 132.3 21.648 A 6.581 6.581 0 0 0 133.637 18.816 A 9.487 9.487 0 0 0 133.84 16.8 Q 133.84 14.98 133.07 13.458 A 6.719 6.719 0 0 0 131.61 11.508 A 6.36 6.36 0 0 0 130.988 11.008 Q 129.675 10.08 127.995 10.08 A 6.737 6.737 0 0 0 126.166 10.315 A 4.913 4.913 0 0 0 123.69 11.9 A 6.257 6.257 0 0 0 122.404 14.481 Q 122.15 15.507 122.15 16.73 Q 122.15 18.55 122.92 20.108 A 6.803 6.803 0 0 0 124.156 21.871 A 6.17 6.17 0 0 0 125.003 22.592 Q 126.315 23.52 127.995 23.52 Z M 81.76 12.39 L 81.76 22.12 A 6.297 6.297 0 0 0 83.031 22.885 A 7.631 7.631 0 0 0 83.65 23.135 A 6.812 6.812 0 0 0 85.808 23.518 A 7.713 7.713 0 0 0 85.96 23.52 A 5.947 5.947 0 0 0 87.716 23.269 A 5.161 5.161 0 0 0 88.988 22.68 A 5.583 5.583 0 0 0 90.791 20.786 A 6.877 6.877 0 0 0 91.053 20.3 A 7.304 7.304 0 0 0 91.699 18.184 A 9.617 9.617 0 0 0 91.805 16.73 A 9.816 9.816 0 0 0 91.666 15.035 Q 91.493 14.049 91.105 13.233 A 6.068 6.068 0 0 0 91.053 13.125 Q 90.3 11.62 89.058 10.815 Q 87.815 10.01 86.31 10.01 Q 84.805 10.01 83.598 10.763 A 8.244 8.244 0 0 0 82.712 11.394 Q 82.279 11.751 81.96 12.133 A 4.529 4.529 0 0 0 81.76 12.39 Z M 39.725 21.315 L 39.725 12.285 Q 39.127 11.53 38.104 10.873 A 9.849 9.849 0 0 0 37.87 10.728 Q 36.68 10.01 35.245 10.01 A 5.231 5.231 0 0 0 33.511 10.29 A 4.685 4.685 0 0 0 32.305 10.92 Q 31.045 11.83 30.363 13.353 A 7.767 7.767 0 0 0 29.754 15.58 A 9.84 9.84 0 0 0 29.68 16.8 Q 29.68 18.725 30.415 20.248 A 6.372 6.372 0 0 0 31.479 21.827 A 5.643 5.643 0 0 0 32.428 22.645 Q 33.705 23.52 35.28 23.52 Q 36.575 23.52 37.748 22.908 Q 38.92 22.295 39.725 21.315 Z M 49.188 3.951 A 2.09 2.09 0 0 0 50.715 4.585 A 2.861 2.861 0 0 0 51.239 4.539 A 1.977 1.977 0 0 0 52.325 3.973 A 2.022 2.022 0 0 0 52.824 3.109 A 2.629 2.629 0 0 0 52.92 2.38 A 2.542 2.542 0 0 0 52.92 2.352 A 2.121 2.121 0 0 0 52.273 0.822 A 2.59 2.59 0 0 0 52.252 0.802 A 2.12 2.12 0 0 0 50.715 0.175 A 2.892 2.892 0 0 0 50.136 0.23 A 1.981 1.981 0 0 0 49.105 0.77 A 1.956 1.956 0 0 0 48.59 1.691 A 2.796 2.796 0 0 0 48.51 2.38 A 2.097 2.097 0 0 0 48.682 3.227 A 2.325 2.325 0 0 0 49.158 3.92 A 2.613 2.613 0 0 0 49.188 3.951 Z" vector-effect="non-scaling-stroke"/></g></svg>